<svg width="1000" height="1000" viewBox="0 0 1000 1000" fill="none" xmlns="http://www.w3.org/2000/svg">
<g id="clapper">
<path id="Vector 14" d="M937.241 484.277C918.896 469.863 118.263 456.76 94.6766 484.277C71.09 511.795 69.7796 887.87 94.6766 907.525C119.574 927.181 918.896 927.181 937.241 907.525C955.586 887.87 955.586 498.691 937.241 484.277Z" stroke="#EBEBEB" stroke-width="10" stroke-linejoin="round"/>
<path id="Vector 20" d="M261.356 724.876C272.596 706.142 361.21 638.347 365.171 681.426C366.219 692.818 363.527 703.72 360.528 714.594C359.292 719.072 352.992 732.288 362.518 727.032C414.259 698.485 469.782 687.309 529.021 691.045C542.48 691.893 577.804 697.01 550.911 711.609C539.927 717.572 543.528 709.212 549.751 707.297C557.862 704.801 571.37 706.953 579.27 706.799C622.576 705.959 665.897 703.717 709.122 700.995C716.207 700.549 768.153 698.01 735.988 698.01" stroke="white" stroke-width="10" stroke-linecap="round"/>
<path id="Vector 13" d="M94.1983 412.777C69.3794 414.891 28.462 283.018 57.0613 263.499C85.6606 243.98 853.966 57.661 881.535 72.3976C909.105 87.1341 934.321 204.574 921.951 229.282C909.582 253.99 119.017 410.664 94.1983 412.777Z" stroke="#EBEBEB" stroke-width="10" stroke-linejoin="round"/>
<path id="Vector 15" d="M243 212L257.5 379" stroke="#EBEBEB" stroke-width="10" stroke-linejoin="round"/>
<path id="Vector 16" d="M467 158.5L484 332.5" stroke="#EBEBEB" stroke-width="10" stroke-linejoin="round"/>
<path id="Vector 17" d="M616.5 126L630 303.5" stroke="#EBEBEB" stroke-width="10" stroke-linejoin="round"/>
<path id="Vector 18" d="M717 99L732 279" stroke="#EBEBEB" stroke-width="10" stroke-linejoin="round"/>
<path id="Vector 19" d="M793 86L806 260" stroke="#EBEBEB" stroke-width="10" stroke-linejoin="round"/>
</g>
</svg>
