<svg width="243" height="60" viewBox="0 0 243 60" fill="none" xmlns="http://www.w3.org/2000/svg">
<path d="M6.48 1.88H23.76V22.36H49.28V1.88H66.56V59H49.28V36.76H23.76V59H6.48V1.88ZM49.1269 1.88H66.4069V23.96L90.1669 1.88H109.687L86.3269 23.8L111.847 59H92.1669L74.6469 34.6L66.4069 41.8V59H49.1269V1.88Z" fill="#EBEBEB"/>
<circle cx="235" cy="32" r="8" fill="#D81E5C"/>
<path d="M128.575 38H125.15V35.9C124.55 36.7 123.775 37.3167 122.825 37.75C121.892 38.1833 120.85 38.4 119.7 38.4C118.4 38.4 117.267 38.1167 116.3 37.55C115.333 36.9833 114.583 36.1917 114.05 35.175C113.517 34.1583 113.25 32.975 113.25 31.625C113.25 30.2417 113.525 29.025 114.075 27.975C114.642 26.925 115.433 26.1 116.45 25.5C117.483 24.9 118.683 24.6 120.05 24.6C122.25 24.6 123.925 25.325 125.075 26.775V20.15H128.575V38ZM117.875 34.625C118.592 35.3583 119.6 35.725 120.9 35.725C121.717 35.725 122.433 35.5583 123.05 35.225C123.683 34.875 124.183 34.4083 124.55 33.825C124.917 33.2417 125.1 32.5917 125.1 31.875V31.2C125.1 30.05 124.725 29.1083 123.975 28.375C123.242 27.6417 122.258 27.275 121.025 27.275C119.658 27.275 118.617 27.6417 117.9 28.375C117.183 29.1083 116.825 30.1667 116.825 31.55C116.825 32.8667 117.175 33.8917 117.875 34.625ZM139.106 38.4C136.79 38.4 134.981 37.8083 133.681 36.625C132.381 35.425 131.731 33.7583 131.731 31.625C131.731 30.2083 132.04 28.975 132.656 27.925C133.29 26.875 134.165 26.0583 135.281 25.475C136.415 24.8917 137.723 24.6 139.206 24.6C141.506 24.6 143.281 25.1833 144.531 26.35C145.798 27.5 146.431 29.1333 146.431 31.25V32.325H135.131C135.215 33.5417 135.615 34.4583 136.331 35.075C137.048 35.675 138.015 35.975 139.231 35.975C141.281 35.975 142.54 35.3667 143.006 34.15H146.256C145.556 36.9833 143.173 38.4 139.106 38.4ZM139.181 27C138.281 27 137.556 27.15 137.006 27.45C136.456 27.7333 136.04 28.125 135.756 28.625C135.49 29.1083 135.306 29.65 135.206 30.25H143.131C143.065 29.1167 142.715 28.2917 142.081 27.775C141.465 27.2583 140.498 27 139.181 27ZM162.693 34.275C162.693 37.025 160.452 38.4 155.968 38.4C153.952 38.4 152.293 38.075 150.993 37.425C149.71 36.7583 148.952 35.6417 148.718 34.075H152.018C152.418 35.375 153.71 36.025 155.893 36.025C157.01 36.025 157.868 35.8833 158.468 35.6C159.068 35.3167 159.368 34.9083 159.368 34.375C159.368 33.925 159.152 33.5833 158.718 33.35C158.285 33.1167 157.477 32.9167 156.293 32.75L154.718 32.525C152.685 32.2083 151.243 31.75 150.393 31.15C149.543 30.5333 149.118 29.6417 149.118 28.475C149.118 27.2417 149.685 26.2917 150.818 25.625C151.968 24.9417 153.568 24.6 155.618 24.6C157.702 24.6 159.26 24.9083 160.293 25.525C161.343 26.1417 162.043 27.0667 162.393 28.3L159.168 28.625C158.785 27.475 157.602 26.9 155.618 26.9C154.602 26.9 153.802 27.0417 153.218 27.325C152.652 27.5917 152.368 27.9667 152.368 28.45C152.368 28.8833 152.577 29.2167 152.993 29.45C153.41 29.6833 154.177 29.8833 155.293 30.05L156.993 30.3C158.443 30.5 159.577 30.7667 160.393 31.1C161.227 31.4167 161.818 31.8333 162.168 32.35C162.518 32.85 162.693 33.4917 162.693 34.275ZM165.658 25H169.158V38H165.658V25ZM165.608 20.025H169.208V22.85H165.608V20.025ZM187.633 35.85C187.633 38.3833 187.033 40.225 185.833 41.375C184.649 42.5417 182.766 43.125 180.183 43.125C177.933 43.125 176.216 42.775 175.033 42.075C173.849 41.3917 173.149 40.3333 172.933 38.9H176.333C176.533 39.5167 176.924 39.9667 177.508 40.25C178.108 40.5333 178.991 40.675 180.158 40.675C181.524 40.675 182.524 40.3583 183.158 39.725C183.808 39.0917 184.133 38.1 184.133 36.75V35.35C182.933 36.85 181.141 37.6 178.758 37.6C177.474 37.6 176.349 37.3333 175.383 36.8C174.416 36.2667 173.658 35.5167 173.108 34.55C172.574 33.5667 172.308 32.4333 172.308 31.15C172.308 29.8833 172.591 28.7583 173.158 27.775C173.724 26.7917 174.516 26.0167 175.533 25.45C176.566 24.8833 177.758 24.6 179.108 24.6C180.258 24.6 181.241 24.7833 182.058 25.15C182.891 25.5167 183.616 26.075 184.233 26.825V25H187.633V35.85ZM176.958 33.95C177.691 34.6333 178.691 34.975 179.958 34.975C180.758 34.975 181.474 34.825 182.108 34.525C182.741 34.225 183.241 33.8 183.608 33.25C183.974 32.7 184.158 32.0667 184.158 31.35V30.9C184.158 29.7667 183.774 28.875 183.008 28.225C182.258 27.575 181.283 27.25 180.083 27.25C178.749 27.25 177.716 27.5833 176.983 28.25C176.249 28.9167 175.883 29.8667 175.883 31.1C175.883 32.3167 176.241 33.2667 176.958 33.95ZM191.122 25H194.547V27.15C195.297 26.2833 196.122 25.6417 197.022 25.225C197.922 24.8083 198.913 24.6 199.997 24.6C201.73 24.6 203.055 25.025 203.972 25.875C204.888 26.7083 205.347 27.9417 205.347 29.575V38H201.847V30.225C201.847 29.225 201.605 28.5 201.122 28.05C200.655 27.5833 199.888 27.35 198.822 27.35C198.255 27.35 197.688 27.4583 197.122 27.675C196.572 27.8917 196.105 28.1917 195.722 28.575C194.988 29.2083 194.622 29.9917 194.622 30.925V38H191.122V25ZM222.142 34.275C222.142 37.025 219.9 38.4 215.417 38.4C213.4 38.4 211.742 38.075 210.442 37.425C209.158 36.7583 208.4 35.6417 208.167 34.075H211.467C211.867 35.375 213.158 36.025 215.342 36.025C216.458 36.025 217.317 35.8833 217.917 35.6C218.517 35.3167 218.817 34.9083 218.817 34.375C218.817 33.925 218.6 33.5833 218.167 33.35C217.733 33.1167 216.925 32.9167 215.742 32.75L214.167 32.525C212.133 32.2083 210.692 31.75 209.842 31.15C208.992 30.5333 208.567 29.6417 208.567 28.475C208.567 27.2417 209.133 26.2917 210.267 25.625C211.417 24.9417 213.017 24.6 215.067 24.6C217.15 24.6 218.708 24.9083 219.742 25.525C220.792 26.1417 221.492 27.0667 221.842 28.3L218.617 28.625C218.233 27.475 217.05 26.9 215.067 26.9C214.05 26.9 213.25 27.0417 212.667 27.325C212.1 27.5917 211.817 27.9667 211.817 28.45C211.817 28.8833 212.025 29.2167 212.442 29.45C212.858 29.6833 213.625 29.8833 214.742 30.05L216.442 30.3C217.892 30.5 219.025 30.7667 219.842 31.1C220.675 31.4167 221.267 31.8333 221.617 32.35C221.967 32.85 222.142 33.4917 222.142 34.275Z" fill="#EBEBEB"/>
</svg>
