<svg width="500" height="436" viewBox="0 0 500 436" fill="none" xmlns="http://www.w3.org/2000/svg">
<g id="clapper">
<g id="clapper_2">
<rect id="Rectangle 9" x="93.113" y="208.87" width="328.339" height="170.63" rx="12.5" stroke="#EBEBEB" stroke-width="5"/>
<path id="Vector 4" d="M160.6 305.806C164.889 298.657 198.702 272.789 200.214 289.227C200.613 293.573 199.586 297.734 198.442 301.883C197.97 303.591 195.566 308.634 199.201 306.629C218.944 295.736 240.13 291.471 262.734 292.897C267.87 293.221 281.349 295.173 271.087 300.743C266.896 303.019 268.27 299.829 270.644 299.098C273.739 298.146 278.893 298.967 281.908 298.908C298.432 298.588 314.963 297.732 331.456 296.694C334.159 296.523 353.981 295.555 341.707 295.555" stroke="white" stroke-width="5" stroke-linecap="round"/>
<line id="Line 3" x1="157.63" y1="91.6727" x2="157.63" y2="159.774" stroke="#EBEBEB" stroke-width="5"/>
<line id="Line 4" x1="243.653" y1="77.3355" x2="243.653" y2="145.437" stroke="#EBEBEB" stroke-width="5"/>
<line id="Line 8" x1="301.002" y1="70.1669" x2="301.002" y2="138.268" stroke="#EBEBEB" stroke-width="5"/>
<line id="Line 7" x1="340.429" y1="66.5826" x2="340.429" y2="134.684" stroke="#EBEBEB" stroke-width="5"/>
<line id="Line 6" x1="369.103" y1="59.4141" x2="369.103" y2="127.516" stroke="#EBEBEB" stroke-width="5"/>
<rect id="Rectangle 10" x="79.7088" y="103.202" width="329.792" height="67.1732" rx="12.5" transform="rotate(-8.15048 79.7088 103.202)" stroke="#EBEBEB" stroke-width="5"/>
</g>
</g>
</svg>
