<svg width="120" height="100" viewBox="0 0 120 100" fill="none" xmlns="http://www.w3.org/2000/svg">
<g id="icon">
<g id="icon_2">
<path id="Star" d="M45.9446 24.9791L62.9523 40.2929L82.7722 28.8499L73.4636 49.7574L90.4713 65.0711L67.7106 62.6789L58.402 83.5864L53.6437 61.2004L30.883 58.8082L50.7029 47.3651L45.9446 24.9791Z" fill="#D81E5C"/>
<path id="heart" d="M70.2596 45.9859C70.2596 41.6539 70.7864 34.9111 67.4969 31.5551C63.7002 27.6816 60.5482 39.0802 60.3692 41.3635C59.9037 47.2992 60.0882 54.4367 64.5132 58.9512C69.1716 63.7038 71.3278 61.8609 75.8401 57.5983C80.783 52.929 92.7174 48.0726 94.0738 40.4616C94.7538 36.6456 92.4877 36.2054 89.1562 37.0794C85.4355 38.0555 80.6966 39.4968 77.7188 41.9272C76.1188 43.2331 74.3405 44.9713 72.2487 44.9713" stroke="white" stroke-width="3" stroke-linecap="round"/>
</g>
</g>
</svg>
