<svg width="500" height="436" viewBox="0 0 500 436" fill="none" xmlns="http://www.w3.org/2000/svg">
<g id="keycap">
<g id="keycap_2">
<path id="Vector 3 (Stroke)" fill-rule="evenodd" clip-rule="evenodd" d="M332.21 68.8012C333.656 68.3388 335.242 68.727 336.322 69.8082L433.191 166.76C434.326 167.897 434.701 169.594 434.148 171.101L385.964 302.53C385.538 303.691 384.614 304.593 383.45 304.986C256.989 347.669 225.145 353.96 96.5363 373.067C95.445 373.229 94.3333 372.938 93.4555 372.26C92.5776 371.582 92.0089 370.576 91.8794 369.471C87.7489 334.229 87.8395 308.251 87.951 276.299C88.0151 257.909 88.0862 237.54 87.3632 212.286C87.3355 211.321 87.647 210.377 88.2427 209.623L162.964 114.979C163.556 114.228 164.392 113.712 165.326 113.52C230.029 100.215 266.591 89.7739 332.21 68.8012ZM168.433 121.264L101.227 206.389C154.293 197.34 181.716 189.513 223.462 177.599C240.456 172.748 259.823 167.221 284.259 160.657L325.383 79.5951C265.758 98.5273 229.488 108.668 168.433 121.264ZM334.554 79.5843L291.811 163.84L381.01 292.318L425.596 170.704L334.554 79.5843ZM375.683 298.938L285.374 168.862C261.664 175.239 242.707 180.649 225.985 185.422C182.253 197.903 153.806 206.022 95.606 215.66C96.2425 239.9 96.1696 259.427 96.1041 276.991C95.9911 307.242 95.9 331.671 99.4921 364.326C222.491 346.017 255.366 339.426 375.683 298.938Z" fill="#EBEBEB"/>
<g id="crtl">
<path d="M188.854 285.033C189.189 288.69 188.266 291.82 186.087 294.422C183.898 296.987 180.611 298.814 176.224 299.902C171.081 301.177 166.755 300.895 163.246 299.055C159.763 297.17 157.442 293.89 156.283 289.216C155.543 286.231 155.539 283.446 156.272 280.859C156.996 278.237 158.442 275.989 160.611 274.115C162.772 272.205 165.542 270.831 168.922 269.993C172.985 268.985 176.512 269.046 179.502 270.175C182.483 271.268 184.717 273.348 186.202 276.415L178.339 279.338C177.515 277.863 176.425 276.854 175.069 276.313C173.75 275.762 172.209 275.705 170.447 276.142C167.93 276.766 166.148 278.048 165.102 279.987C164.047 281.889 163.858 284.207 164.536 286.94C165.231 289.745 166.472 291.747 168.258 292.945C170.071 294.099 172.272 294.355 174.861 293.713C176.803 293.231 178.282 292.425 179.3 291.295C180.308 290.129 180.778 288.715 180.71 287.052L188.854 285.033Z" fill="white"/>
<path d="M197.573 293.692L190.592 265.536L198.467 263.583L199.604 268.168C201.534 264.101 204.514 261.569 208.541 260.57C209.476 260.338 210.541 260.169 211.736 260.064L212.478 266.98C211.346 267.031 210.276 267.182 209.269 267.432C206.572 268.1 204.53 269.408 203.142 271.356C201.881 273.195 201.482 275.05 201.946 276.92L205.61 291.699L197.573 293.692Z" fill="white"/>
<path d="M244.621 281.339C242.3 282.754 239.755 283.805 236.986 284.492C233.426 285.374 230.641 285.225 228.63 284.044C226.611 282.827 225.169 280.475 224.304 276.987L221.161 264.311L215.713 265.662L214.228 259.675L219.676 258.324L217.817 250.827L225.854 248.834L227.713 256.331L236.937 254.044L238.421 260.031L229.198 262.318L232.274 274.724C232.622 276.127 233.222 277.085 234.074 277.599C234.918 278.077 236.077 278.133 237.552 277.767C239.098 277.384 240.618 276.74 242.111 275.835L244.621 281.339Z" fill="white"/>
<path d="M249.985 280.696L240.435 242.184L248.472 240.191L258.022 278.703L249.985 280.696Z" fill="white"/>
</g>
</g>
</g>
</svg>
