<svg width="1000" height="1000" viewBox="0 0 1000 1000" fill="none" xmlns="http://www.w3.org/2000/svg">
<g id="keycap">
<path id="Vector 6" d="M796.399 180H284.627L96.8401 457.982M796.399 180C778.022 312.369 746.452 378.068 648.852 478.649M796.399 180L971.805 381.511C928.092 556.831 880.528 643.703 796.399 799M96.8401 457.982C308.093 491.046 427.593 503.457 648.852 478.649M96.8401 457.982C96.8401 457.982 16.0276 706.586 30.805 762.831C45.5824 819.077 701.305 839.5 796.399 799M648.852 478.649L796.399 799" stroke="#EBEBEB" stroke-width="10" stroke-linejoin="round"/>
<path id="Vector 7" d="M201.726 636.108C196.746 630.449 192.163 625.101 184.144 626.813C169.498 629.941 151.55 636.674 145.231 651.416C128.737 689.896 214.575 686.889 233.735 678.612" stroke="white" stroke-width="10" stroke-linecap="round"/>
<path id="Vector 8" d="M252.07 592C265.031 618.574 261.627 656.798 261.023 685.988" stroke="white" stroke-width="10" stroke-linecap="round"/>
<path id="Vector 9" d="M301.404 634.278C277.089 629.906 253.338 628.808 228.549 628.295" stroke="white" stroke-width="10" stroke-linecap="round"/>
<path id="Vector 10" d="M307.573 637.131C318.572 633.087 317.994 690.464 321.979 663.009C326.119 634.48 382.875 639.063 404.399 641.47" stroke="white" stroke-width="10" stroke-linecap="round"/>
<path id="Vector 11" d="M427.92 605.175C426.389 624.757 425.713 644.253 423.528 663.792C422.814 670.177 417.1 686.976 427.866 683.018" stroke="white" stroke-width="10" stroke-linecap="round"/>
<path id="Vector 12" d="M506.439 657.204C509.113 677.098 630.336 651.617 575.018 688.539C563.043 696.532 549.612 702.572 536.702 708.883C532.844 710.769 518.691 715.817 530.947 717.37C553.912 720.281 575.494 719.969 598.237 725.855" stroke="white" stroke-width="10" stroke-linecap="round"/>
</g>
</svg>
