<svg width="331" height="327" viewBox="0 0 331 327" fill="none" xmlns="http://www.w3.org/2000/svg">
<path d="M106.837 61.6822L176.872 124.742L258.488 77.6214L220.157 163.716L290.192 226.776L196.466 216.925L158.135 303.019L138.541 210.837L44.8148 200.986L126.431 153.865L106.837 61.6822Z" fill="#D81E5C"/>
<path d="M206.963 148.186C206.963 130.347 209.132 102.581 195.586 88.7611C179.952 72.8105 166.973 119.749 166.235 129.151C164.319 153.593 165.078 182.985 183.3 201.575C202.483 221.146 211.361 213.557 229.943 196.004C250.297 176.776 299.441 156.778 305.027 125.437C307.827 109.723 298.495 107.911 284.777 111.51C269.455 115.529 249.941 121.464 237.679 131.472C231.09 136.85 223.767 144.007 215.153 144.007" stroke="white" stroke-width="11" stroke-linecap="round"/>
</svg>
